<?xml version="1.0" encoding="utf-8"?>
<!-- Generator: Adobe Illustrator 16.0.0, SVG Export Plug-In . SVG Version: 6.00 Build 0)  -->
<!DOCTYPE svg PUBLIC "-//W3C//DTD SVG 1.1//EN" "http://www.w3.org/Graphics/SVG/1.1/DTD/svg11.dtd">
<svg version="1.1" id="Calque_1" xmlns="http://www.w3.org/2000/svg" xmlns:xlink="http://www.w3.org/1999/xlink" x="0px" y="0px"
	 width="48px" height="48px" viewBox="0 0 48 48" enable-background="new 0 0 48 48" xml:space="preserve">
<radialGradient id="SVGID_1_" cx="13.6328" cy="23.5625" r="501.043" gradientTransform="matrix(0.0459 0 0 0.0459 23.3745 22.9184)" gradientUnits="userSpaceOnUse">
	<stop  offset="0" style="stop-color:#FFF200"/>
	<stop  offset="0.0919" style="stop-color:#F3E200"/>
	<stop  offset="0.1089" style="stop-color:#EFDF00"/>
	<stop  offset="0.1106" style="stop-color:#EED100"/>
	<stop  offset="0.114" style="stop-color:#ECB116"/>
	<stop  offset="0.1189" style="stop-color:#EB7B21"/>
	<stop  offset="0.1238" style="stop-color:#EE2A25"/>
	<stop  offset="0.4704" style="stop-color:#C4382B"/>
	<stop  offset="0.505" style="stop-color:#C0392B"/>
	<stop  offset="0.6733" style="stop-color:#342A27"/>
	<stop  offset="1" style="stop-color:#000000"/>
</radialGradient>
<circle fill="url(#SVGID_1_)" cx="24" cy="24" r="23"/>
<path opacity="0.6" fill="#FFFFFF" d="M18.701,19.599c0,0.739-0.6,1.333-1.334,1.333s-1.334-0.594-1.334-1.333
	c0-0.734,0.6-1.335,1.334-1.335S18.701,18.864,18.701,19.599z"/>
<path opacity="0.6" fill="#FFFFFF" d="M31.983,19.686c0,0.734-0.588,1.334-1.328,1.334s-1.329-0.6-1.329-1.334
	c0-0.739,0.589-1.334,1.329-1.334S31.983,18.946,31.983,19.686z"/>
<g display="none">
	<path display="inline" fill="#FFFFFF" d="M335.165-108.052l49.265-20.94c-20.433-48.01-50.188-91.097-86.996-126.985
		l-37.378,38.342C291.826-186.658,317.524-149.485,335.165-108.052z"/>
	<path display="inline" fill="#FFFFFF" d="M-286.525-107.237c17.364-41.094,42.647-78.021,73.918-108.9l-37.606-38.086
		c-36.228,35.774-65.508,78.567-85.623,126.18L-286.525-107.237z"/>
	<path display="inline" fill="#FFFFFF" d="M230.388-187.201l-27.922,28.643c24.003,23.403,43.422,51.486,56.753,82.789
		l36.822-15.652C280.62-127.636,258.157-160.126,230.388-187.201z"/>
	<path display="inline" fill="#FFFFFF" d="M-210.496-75.157c13.119-31.048,32.222-58.949,55.849-82.279l-28.101-28.46
		c-27.333,26.99-49.432,59.267-64.61,95.186L-210.496-75.157z"/>
	<path display="inline" fill="#FFFFFF" d="M-98.444-100.516c-16.214,16.011-29.324,35.159-38.328,56.467l24.418,10.303
		c7.64-18.083,18.764-34.332,32.523-47.918L-98.444-100.516z"/>
	<path display="inline" fill="#FFFFFF" d="M-66.86-256.552l16.928,36.604C-26.383-227.126-1.394-231,24.502-231
		c26.126,0,51.337,3.943,75.077,11.254l17.067-36.542C87.648-265.823,56.679-271,24.502-271C-7.389-271-38.09-265.917-66.86-256.552
		z"/>
	<path display="inline" fill="#FFFFFF" d="M185.581-44.47c-9.148-21.481-22.475-40.755-38.947-56.815l-18.481,18.958
		c13.979,13.63,25.285,29.988,33.046,48.222L185.581-44.47z"/>
	<path display="inline" fill="#FFFFFF" d="M-84.819-295.384C-50.531-307.12-13.76-313.5,24.502-313.5
		c38.605,0,75.693,6.506,110.249,18.45l22.763-48.736C115.992-358.806,71.204-367,24.5-367c-46.283,0-90.684,8.048-131.89,22.81
		L-84.819-295.384z"/>
	<path display="inline" fill="#FFFFFF" d="M24.501-151c-13.898,0-27.415,1.629-40.378,4.691l11.397,24.644
		c9.374-1.854,19.062-2.835,28.98-2.835c10.012,0,19.789,0.998,29.245,2.886l11.491-24.603C52.162-149.337,38.525-151,24.501-151z"
		/>
</g>
<g opacity="0.6">
	<path fill="#FFFFFF" d="M23.998,14.973c-0.914,0-1.803,0.146-2.653,0.425l0.743,2.234c0.62-0.167,1.257-0.258,1.91-0.258
		c0.658,0,1.303,0.092,1.922,0.267l0.755-2.237C25.819,15.121,24.917,14.973,23.998,14.973z"/>
</g>
<g>
	<path fill="#FFFFFF" d="M38.91,17.664l2.371-1.006c-0.981-2.309-2.416-4.375-4.187-6.095l-1.79,1.837
		C36.835,13.891,38.064,15.674,38.91,17.664z"/>
	<path fill="#FFFFFF" d="M9.071,17.699c0.836-1.972,2.045-3.74,3.546-5.227l-1.805-1.828c-1.738,1.721-3.144,3.772-4.108,6.06
		L9.071,17.699z"/>
	<path fill="#FFFFFF" d="M18.752,8.67C20.396,8.107,22.166,7.801,24,7.801c1.857,0,3.639,0.31,5.293,0.887l1.089-2.34
		C28.396,5.625,26.244,5.23,24,5.23c-2.223,0-4.354,0.39-6.33,1.097L18.752,8.67z"/>
</g>
<g opacity="0.8">
	<path fill="#FFFFFF" d="M33.837,13.865l-1.345,1.371c1.156,1.124,2.09,2.475,2.723,3.977l1.771-0.751
		C36.243,16.725,35.165,15.163,33.837,13.865z"/>
	<path fill="#FFFFFF" d="M12.674,19.241c0.631-1.493,1.547-2.831,2.679-3.952l-1.346-1.364c-1.313,1.294-2.377,2.848-3.105,4.569
		L12.674,19.241z"/>
	<path fill="#FFFFFF" d="M19.567,10.531l0.814,1.757c1.129-0.34,2.328-0.527,3.57-0.527c1.257,0,2.47,0.189,3.605,0.54l0.813-1.755
		c-1.384-0.46-2.874-0.706-4.419-0.706C22.423,9.841,20.949,10.083,19.567,10.531z"/>
</g>
<path fill="#CFD2DD" d="M24,2.063C10.847,2.063,0.188,10.331,0.188,23c0,12.67,10.66,22.938,23.813,22.938
	c13.153,0,23.813-10.268,23.813-22.938C47.813,10.331,37.153,2.063,24,2.063z M24,42.593C12.767,42.593,3.66,33.82,3.66,23
	S12.767,3.408,24,3.408c11.233,0,20.34,8.772,20.34,19.592S35.233,42.593,24,42.593z"/>
<path fill="#8F929E" d="M24,0C10.744,0,0,10.744,0,24c0,13.257,10.744,24,24,24c13.257,0,24-10.743,24-24C48,10.744,37.257,0,24,0z
	 M24,44.5C12.679,44.5,3.5,35.322,3.5,24C3.5,12.679,12.679,3.5,24,3.5c11.322,0,20.5,9.179,20.5,20.5
	C44.5,35.322,35.322,44.5,24,44.5z"/>
</svg>
