<?xml version="1.0" encoding="utf-8"?>
<!-- Generator: Adobe Illustrator 16.0.0, SVG Export Plug-In . SVG Version: 6.00 Build 0)  -->
<!DOCTYPE svg PUBLIC "-//W3C//DTD SVG 1.1//EN" "http://www.w3.org/Graphics/SVG/1.1/DTD/svg11.dtd">
<svg version="1.1" id="linkedin" xmlns="http://www.w3.org/2000/svg" xmlns:xlink="http://www.w3.org/1999/xlink" x="0px" y="0px"
	 width="32px" height="32px" viewBox="0 0 32 32" enable-background="new 0 0 32 32" xml:space="preserve">
<path opacity="0.5" enable-background="new    " d="M16,0C7.164,0,0,7.163,0,16s7.164,16,16,16s16-7.163,16-16S24.836,0,16,0z
	 M11.674,23.232H8.432V12.757h3.242V23.232z M10.037,11.385c-1.059,0-1.917-0.865-1.917-1.934c0-1.066,0.858-1.932,1.917-1.932
	s1.917,0.865,1.917,1.932C11.954,10.52,11.096,11.385,10.037,11.385z M23.824,23.232h-3.227c0,0,0-3.991,0-5.5
	c0-1.508-0.574-2.351-1.766-2.351c-1.298,0-1.977,0.877-1.977,2.351c0,1.613,0,5.5,0,5.5h-3.109V12.757h3.109v1.411
	c0,0,0.936-1.73,3.158-1.73c2.221,0,3.811,1.356,3.811,4.162C23.824,19.406,23.824,23.232,23.824,23.232z"/>
</svg>
