<?xml version="1.0" encoding="utf-8"?>
<!DOCTYPE svg PUBLIC "-//W3C//DTD SVG 1.1//EN" "http://www.w3.org/Graphics/SVG/1.1/DTD/svg11.dtd">
<svg version="1.1" id="github" xmlns="http://www.w3.org/2000/svg" xmlns:xlink="http://www.w3.org/1999/xlink" x="0px" y="0px"
	 width="32px" height="32px" viewBox="0 0 32 32" enable-background="new 0 0 32 32" xml:space="preserve">
<path opacity="0.5" enable-background="new    " d="M16,0C7.163,0,0,7.163,0,16s7.163,16,16,16s16-7.163,16-16
	S24.837,0,16,0z M19.313,25.58c-0.012,0.003-0.053,0.016-0.063,0.018c-0.044,0.01-0.093,0.018-0.142,0.018
	c-0.328,0-0.596-0.27-0.596-0.598c0-0.016,0-2.313,0-2.658c0-0.359-0.015-1.241-0.537-1.785c2.721-0.451,4.529-1.915,4.529-4.785
	c0-1.303-0.374-2.316-1.036-3.077c0.109-0.622,0.298-2.073-0.2-2.583c0,0-0.707-0.436-2.729,0.989
	c-0.754-0.175-1.591-0.259-2.49-0.267l0,0c-0.016,0-0.032,0-0.049,0s-0.033,0-0.049,0l0,0c-0.898,0.006-1.735,0.092-2.489,0.267
	c-2.021-1.425-2.729-0.989-2.729-0.989c-0.498,0.51-0.311,1.961-0.2,2.583c-0.663,0.761-1.036,1.772-1.036,3.077
	c0,2.87,1.809,4.334,4.527,4.785c-0.334,0.35-0.461,0.84-0.506,1.24c-0.23,0.076-0.601,0.164-1.168,0.223
	c-1.156,0.121-1.701-1.118-2.24-1.734c-0.539-0.615-1.58-0.349-1.543-0.168c0.037,0.182,0.988,0.458,1.397,1.479
	c0.336,0.838,0.683,1.265,1.372,1.596c0.531,0.256,1.51,0.132,2.152,0c0,0.544,0,1.227,0,1.762h-0.002
	c0.002,0.016,0.002,0.031,0.002,0.047c0,0.328-0.266,0.598-0.596,0.598c-0.063,0-0.125-0.012-0.184-0.029
	c-0.016-0.005-0.086-0.029-0.105-0.037C8.678,24.152,5.867,20.404,5.867,16c0-5.596,4.537-10.133,10.133-10.133
	S26.133,10.404,26.134,16C26.134,20.438,23.283,24.208,19.313,25.58z"/>
</svg>
