<?xml version="1.0" encoding="utf-8"?>
<!DOCTYPE svg PUBLIC "-//W3C//DTD SVG 1.1//EN" "http://www.w3.org/Graphics/SVG/1.1/DTD/svg11.dtd">
<svg version="1.1" id="cvm" xmlns="http://www.w3.org/2000/svg" xmlns:xlink="http://www.w3.org/1999/xlink" x="0px" y="0px"
	 width="70px" height="32px" viewBox="0.083 21 70 32" enable-background="new 0.083 21 70 32" xml:space="preserve">
<path opacity="0.5" enable-background="new    " d="M67.616,28.155l-7.293,12.68V27.942h-2.679l-6.522,14.233
	c0,0,1.261-12.158-9.969-13.952c-4.855-0.773-8.582,1.3-10.342,4.588c-0.016-0.05-0.027-0.096-0.044-0.146
	c-0.939-2.836-3.12-7.544-8.911-10.306c-4.398-2.098-12.446-2.02-16.74,2.02c-4.4,4.14-6.627,12.236-3.723,18.295
	c3.905,8.153,12.254,11.035,21.472,9.119v-2.793c-8.282,2.145-15.211-0.103-19.208-7.187c-2.433-4.311-1.602-10.917,3.405-15.703
	c3.088-2.952,9.887-4.203,14.049-1.714c3.962,2.369,6.457,5.4,7.711,9.134c3.404,10.137-4.012,10.55-4.58,7.994
	c0.121-2.542,0.234-7.412-1.621-10.466c-1.712-2.819-5.308-4.273-9.726-3.09c-4.621,1.235-6.616,4.57-6.443,8.529
	c0.283,6.509,10.252,8.077,16.169,7.418c2.378,2.628,6.616,2.098,8.366-1.676c3.187,4.555,12.169,3.314,12.169,3.314v-2.666
	c0,0-8.12,1.951-10.282-3.712c-1.48-3.882,1.568-9.917,8.539-8.365c8.638,1.923,7.275,12.783,7.275,14.746c0.588,0,4.129,0,4.129,0
	l5.193-12.187l0.009,9.639l4.019,0.001l5.362-9.02V53h2.683V28.155H67.616z M16.539,39.724c-0.561-0.12-0.462-0.916-1.194-1.172
	c-0.447-0.158-1.804-0.041-2.263-0.259c-1.452-0.69-0.755-2.044-3.501-2.614c0.246-0.739,3.632-2.41,7.061-1.88
	c0.906,0.557,2.063,1.93,2.697,4.5C18.056,38.986,18.031,40.039,16.539,39.724z M22.652,37.79c-0.233,0.341-0.934-0.029-1.996,0.093
	c-1.097-1.15-2.292-3.112-2.385-4.312c0.694-0.896,2.315-1.731,3.775-1.099c-0.356,1.035,0.297,1.386,0.309,2.63
	c0.004,0.456-0.247,0.792-0.363,1.255C21.85,36.931,23.014,37.258,22.652,37.79z"/>
</svg>
