<svg version="1.1" xmlns="http://www.w3.org/2000/svg" xmlns:xlink="http://www.w3.org/1999/xlink" x="0px" y="0px" width="400px"
	 height="400px" viewBox="0 0 400 400" enable-background="new 0 0 400 400" xml:space="preserve">
	<rect x="0" y="0" fill="#A5A4A4" width="400" height="400"/>
	<rect y="267" fill="#DFC8E1" width="132" height="132"/>
	<polygon points="105.649,366.255 72.071,332.677 105.253,299.493 98.89,293.13 65.707,326.313 32.817,293.423 26.453,299.787 
		59.343,332.677 26.058,365.962 32.422,372.325 65.707,339.041 99.285,372.619 	"/>
	<rect y="132.685" fill="#DFC8E1" width="132" height="132"/>
	<polygon points="105.649,231.939 72.071,198.361 105.253,165.178 98.89,158.814 65.707,191.998 32.817,159.107 26.453,165.472 
		59.343,198.361 26.058,231.646 32.422,238.01 65.707,204.726 99.285,238.304 	"/>
	<rect fill="#DFC8E1" width="132" height="132"/>
	<polygon points="105.649,99.255 72.071,65.677 105.254,32.494 98.89,26.13 65.707,59.313 32.817,26.423 26.453,32.787 
		59.343,65.677 26.058,98.962 32.422,105.326 65.707,72.041 99.285,105.619 	"/>
	<rect x="267" y="267" fill="#C9C7E4" width="132" height="132"/>
	<path d="M333.667,292.5c-22.367,0-40.5,18.133-40.5,40.5s18.133,40.5,40.5,40.5s40.5-18.133,40.5-40.5S356.034,292.5,333.667,292.5
		z M333.917,365c-17.947,0-32.5-14.552-32.5-32.5c0-17.947,14.553-32.5,32.5-32.5c17.945,0,32.5,14.553,32.5,32.5
		C366.417,350.448,351.862,365,333.917,365z"/>
	<rect x="267" y="133" fill="#C9C7E4" width="132" height="132"/>
	<path d="M333.667,158.5c-22.367,0-40.5,18.132-40.5,40.5c0,22.367,18.133,40.5,40.5,40.5s40.5-18.133,40.5-40.5
		C374.167,176.632,356.034,158.5,333.667,158.5z M333.917,231c-17.947,0-32.5-14.552-32.5-32.5c0-17.948,14.553-32.5,32.5-32.5
		c17.945,0,32.5,14.552,32.5,32.5C366.417,216.448,351.862,231,333.917,231z"/>
	<rect x="267" fill="#C9C7E4" width="132" height="132"/>
	<path d="M333.667,25.5c-22.367,0-40.5,18.132-40.5,40.5s18.133,40.5,40.5,40.5s40.5-18.132,40.5-40.5S356.034,25.5,333.667,25.5z
		 M333.917,98c-17.947,0-32.5-14.552-32.5-32.5c0-17.948,14.553-32.5,32.5-32.5c17.945,0,32.5,14.552,32.5,32.5
		C366.417,83.448,351.862,98,333.917,98z"/>
	<line fill="none" stroke="#000000" stroke-width="3" stroke-miterlimit="10" x1="0" y1="133" x2="400" y2="133"/>
	<line fill="none" stroke="#000000" stroke-width="3" stroke-miterlimit="10" x1="0" y1="266" x2="400" y2="266"/>
	<line fill="none" stroke="#000000" stroke-width="3" stroke-miterlimit="10" x1="133" y1="0" x2="133" y2="400"/>
	<line fill="none" stroke="#000000" stroke-width="3" stroke-miterlimit="10" x1="266" y1="0" x2="266" y2="400"/>
	<rect x="0" y="0" fill="none" stroke="#000000" stroke-width="3" stroke-miterlimit="10" width="400" height="400"/>
</svg>
